<svg xmlns="http://www.w3.org/2000/svg" version="1.1" xmlns:xlink="http://www.w3.org/1999/xlink" xmlns:svgjs="http://svgjs.com/svgjs" width="1440" height="560" preserveAspectRatio="none" viewBox="0 0 1440 560"><g mask="url(&quot;#SvgjsMask1000&quot;)" fill="none"><rect width="1440" height="560" x="0" y="0" fill="rgba(31, 17, 142, 1)"></rect><path d="M1464 560L0 560 L0 290.49Q38.42 256.91, 72 295.34Q126.18 277.52, 144 331.7Q155.38 271.07, 216 282.45Q287.84 234.29, 336 306.14Q403.23 301.37, 408 368.6Q432.16 320.76, 480 344.92Q529.26 274.19, 600 323.45Q645.46 248.91, 720 294.38Q813.1 267.48, 840 360.58Q892.39 292.97, 960 345.36Q995.44 260.8, 1080 296.24Q1152.14 248.38, 1200 320.53Q1269.75 270.28, 1320 340.03Q1369.82 317.85, 1392 367.66Q1404.89 308.56, 1464 321.45z" fill="rgba(100, 92, 187, 1)"></path><path d="M1560 560L0 560 L0 397.76Q68.21 345.97, 120 414.17Q156.12 330.29, 240 366.41Q293.41 299.82, 360 353.23Q447.65 320.88, 480 408.54Q495.19 351.73, 552 366.92Q605.27 300.19, 672 353.46Q766.43 327.89, 792 422.32Q839.15 397.48, 864 444.63Q873.34 381.97, 936 391.31Q951.99 335.29, 1008 351.28Q1049.4 320.68, 1080 362.08Q1178.38 340.45, 1200 438.83Q1249.97 368.8, 1320 418.77Q1372.48 351.25, 1440 403.73Q1477.18 320.91, 1560 358.09z" fill="rgba(160, 132, 220, 1)"></path><path d="M1464 560L0 560 L0 453.25Q36.41 417.66, 72 454.08Q122.44 384.52, 192 434.96Q287.39 410.35, 312 505.74Q338.07 459.81, 384 485.88Q412.03 441.91, 456 469.94Q530.31 424.25, 576 498.56Q605.19 407.75, 696 436.93Q740.43 409.37, 768 453.8Q790.4 404.2, 840 426.6Q919.56 386.16, 960 465.72Q1006.39 440.11, 1032 486.5Q1046.65 429.15, 1104 443.81Q1153.12 372.93, 1224 422.05Q1328.36 406.4, 1344 510.76Q1398.01 444.77, 1464 498.79z" fill="rgba(191, 172, 226, 1)"></path><path d="M1488 560L0 560 L0 555.64Q69.57 505.21, 120 574.78Q138.63 521.4, 192 540.03Q243.26 471.29, 312 522.56Q359.69 450.25, 432 497.94Q488.04 481.98, 504 538.02Q581.58 495.6, 624 573.18Q690.88 520.05, 744 586.93Q773.01 495.94, 864 524.95Q888.54 477.49, 936 502.03Q1027.47 473.5, 1056 564.96Q1100.18 489.14, 1176 533.33Q1228.26 465.59, 1296 517.85Q1382.05 483.9, 1416 569.95Q1416.63 498.58, 1488 499.21z" fill="rgba(235, 199, 230, 1)"></path></g><defs><mask id="SvgjsMask1000"><rect width="1440" height="560" fill="#ffffff"></rect></mask></defs></svg>